<svg width="55" height="45" viewBox="0 0 55 45" fill="none" xmlns="http://www.w3.org/2000/svg">
<path d="M8.29173 16.7771C8.42411 16.8996 8.54774 17.0036 8.66152 17.1174C10.9285 19.3837 13.195 21.6504 15.4612 23.9175C17.0323 25.4887 18.6166 27.0467 20.1658 28.6409C20.5432 29.0304 20.7249 29.049 21.1078 28.6311C28.1829 20.8875 35.2703 13.1555 42.3702 5.4352C43.7618 3.91872 45.1645 2.41426 46.5408 0.883549C46.8187 0.573906 46.9631 0.584852 47.2585 0.860577C49.6538 3.0992 52.0608 5.32396 54.4795 7.53486C54.8077 7.83356 54.8886 7.9944 54.5396 8.37406C47.4792 16.0586 40.4293 23.7519 33.39 31.454C29.3936 35.8196 25.3981 40.186 21.4032 44.5531C21.1406 44.8409 20.9995 44.9371 20.6625 44.5979C14.1294 38.0447 7.58532 31.5039 1.03031 24.9755C0.665985 24.6134 0.632069 24.4372 1.01719 24.0576C3.33554 21.7598 5.62327 19.4424 7.92084 17.1294C8.03243 17.0156 8.15169 16.9073 8.29173 16.7771Z" fill="url(#paint0_linear_228_2355)"/>
<defs>
<linearGradient id="paint0_linear_228_2355" x1="27.7543" y1="0.652527" x2="27.807" y2="39.022" gradientUnits="userSpaceOnUse">
<stop stop-color="#4A0000"/>
<stop offset="0.498677" stop-color="#80011F"/>
</linearGradient>
</defs>
</svg>
