<svg width="112" height="112" viewBox="0 0 112 112" fill="none" xmlns="http://www.w3.org/2000/svg">
<path d="M52.3577 0.92804C57.4538 -0.211229 62.14 0.992135 66.511 3.76495C69.6017 5.72818 71.9389 8.41131 73.5715 11.7054C73.667 11.8987 73.816 12.1573 74.1008 12.2825C74.3877 12.4086 74.678 12.3405 74.8909 12.2737L74.8918 12.2747C82.397 9.95784 89.1439 11.3066 94.9915 16.5286C97.8313 19.0672 99.4697 22.4409 100.307 26.2054L100.308 26.2083C101.145 29.847 100.934 33.6489 99.6975 37.1722V37.1732C99.623 37.3874 99.5639 37.6723 99.7092 37.9495C99.8381 38.1953 100.077 38.3213 100.212 38.3909C106.258 41.5076 109.948 46.3991 111.2 53.0648C112.121 57.9628 110.829 62.4554 108.141 66.6214C106.184 69.6544 103.536 71.9539 100.297 73.5628H100.296C100.084 73.6684 99.8086 73.8329 99.6975 74.1487C99.5919 74.4496 99.689 74.7484 99.762 74.9476C103.872 86.1797 96.8199 98.4849 85.0549 100.624L85.053 100.625C81.6684 101.256 78.1763 100.957 74.9475 99.762H74.9446C74.7129 99.6777 74.4062 99.5959 74.1018 99.7288C73.8114 99.8557 73.6564 100.123 73.5569 100.315C70.2963 106.556 65.2003 110.267 58.2551 111.31C53.5809 112.012 49.2941 110.69 45.3381 108.114C42.314 106.144 40.0183 103.497 38.4172 100.251C38.3205 100.055 38.1684 99.8 37.8743 99.6878C37.5955 99.5816 37.3154 99.6551 37.1282 99.7122C29.5805 102.015 22.7983 100.654 16.9299 95.3851H16.929C14.2268 92.9558 12.6622 89.7206 11.7952 86.136V86.1331L11.635 85.4349C10.9018 81.9348 11.1355 78.296 12.3176 74.9114L12.3186 74.9095C12.3968 74.6823 12.4664 74.3831 12.3303 74.0882C12.2342 73.8801 12.0651 73.7448 11.9094 73.6497L11.762 73.5667C5.47474 70.2772 1.76267 65.1409 0.669189 58.136C0.120742 54.6211 0.876139 51.2587 2.38599 48.0306V48.0296C4.36056 43.7919 7.46803 40.6244 11.635 38.4964L11.634 38.4954C11.8673 38.3768 12.1568 38.2102 12.2971 37.8997C12.4048 37.6613 12.3926 37.4148 12.344 37.1907L12.2864 36.9759C10.0733 29.7173 11.2814 23.1732 16.1233 17.4886L16.6028 16.9407C19.1398 14.1298 22.5058 12.5334 26.2532 11.6722C27.6482 11.3665 29.0704 11.2018 30.4983 11.179C32.9431 11.2075 35.1239 11.5418 37.2219 12.2903C37.4078 12.3566 37.6817 12.4297 37.9592 12.3089C38.2259 12.1926 38.3629 11.9513 38.4446 11.7903L38.4456 11.7913C41.3957 5.99653 46.0164 2.34569 52.3577 0.92804ZM73.884 34.1526C73.5418 34.1574 73.3054 34.3943 73.1663 34.5482L73.1653 34.5491C71.7912 36.0784 70.3938 37.5764 68.9983 39.097C61.9064 46.829 54.8187 54.5612 47.7356 62.2933C47.6931 62.3397 47.6588 62.3732 47.6321 62.3978C47.6039 62.3731 47.5671 62.3401 47.5217 62.2933L47.5208 62.2923C45.9693 60.6947 44.38 59.131 42.8118 57.5638L36.012 50.764C35.8939 50.644 35.7367 50.5083 35.6331 50.4114L35.2903 50.0911L34.9485 50.4134C34.8287 50.5265 34.6841 50.6553 34.5637 50.7757L34.5627 50.7767C32.2634 53.0915 29.9793 55.4116 27.6633 57.7015C27.4715 57.8906 27.2235 58.169 27.2395 58.5443C27.2476 58.7321 27.3203 58.8878 27.3997 59.0081C27.4765 59.1246 27.5759 59.2317 27.6741 59.3294C30.9516 62.5937 34.2266 65.8611 37.4983 69.1312L47.3049 78.9505C47.482 79.1287 47.7625 79.3636 48.136 79.304C48.3093 79.2763 48.4419 79.1926 48.5325 79.1204C48.6215 79.0495 48.7021 78.9631 48.7688 78.89C52.7582 74.5196 56.754 70.1539 60.7551 65.7923V65.7913L81.9045 42.7122C82.0882 42.5124 82.3071 42.2225 82.2542 41.8528C82.2287 41.6762 82.1477 41.5371 82.0696 41.4349C82.0315 41.385 81.9892 41.3372 81.9456 41.2923L81.8137 41.1663L78.1965 37.8392C76.9936 36.7273 75.7934 35.6127 74.5959 34.4954C74.4577 34.3664 74.2139 34.1482 73.884 34.1526Z" fill="white" stroke="url(#paint0_linear_228_2354)"/>
<defs>
<linearGradient id="paint0_linear_228_2354" x1="55.9929" y1="0.000305166" x2="56.1563" y2="97.3086" gradientUnits="userSpaceOnUse">
<stop stop-color="#4A0000"/>
<stop offset="0.498677" stop-color="#80011F"/>
</linearGradient>
</defs>
</svg>
