<svg width="290" height="218" viewBox="0 0 290 218" fill="none" xmlns="http://www.w3.org/2000/svg">
<path opacity="0.2" d="M19.5 217.574C8.56157 198.628 2.05194 177.452 0.458683 155.634C-1.13456 133.815 2.2299 111.919 10.3 91.5847C18.3701 71.2508 30.9367 53.0066 47.0584 38.2186C63.1801 23.4306 82.439 12.4822 103.392 6.19361C124.346 -0.0950271 146.451 -1.56087 168.051 1.90585C189.652 5.37256 210.187 13.682 228.121 26.2117C246.054 38.7413 260.92 55.1665 271.604 74.2567C282.289 93.3469 288.515 114.607 289.817 136.445L145.074 145.074L19.5 217.574Z" fill="url(#paint0_linear_224_2072)"/>
<defs>
<linearGradient id="paint0_linear_224_2072" x1="217.574" y1="270.647" x2="91.2235" y2="52.6491" gradientUnits="userSpaceOnUse">
<stop stop-color="#4A0000"/>
<stop offset="0.498677" stop-color="#80011F"/>
</linearGradient>
</defs>
</svg>
